# xmcd
#
# Track frame offsets:
#	150
#	18353
#	30227
#	44693
#	60605
#	77415
#	93517
#	110981
#	126472
#	147557
#
# Disc length: 2040 seconds
#
# Revision: 1
# Processed by: cddbd v1.5.2PL0 Copyright (c) Steve Scherf et al.
# Submitted via: audiograbber 1.83.01
#
DISCID=8a07f60a
DTITLE=Jill Johnson - Country Jam
DYEAR=2014
DGENRE=Country
TTITLE0=Queen Of Hearts
TTITLE1=If I Needed You
TTITLE2=Jukebox Is Happy
TTITLE3=Note Cause I Wanted To
TTITLE4=Orphan Girl
TTITLE5=Night Flyer
TTITLE6=Going Down To The River
TTITLE7=Ain't Got A Prayer
TTITLE8=Love Hurts
TTITLE9=Love Is A Rose
EXTD=Exclusive to Jill Johnson "Country Cooking" book.
EXTT0=
EXTT1=
EXTT2=
EXTT3=
EXTT4=
EXTT5=
EXTT6=
EXTT7=
EXTT8=
EXTT9=
PLAYORDER=
